# xmcd
#
# Track frame offsets:
#	150
#	60057
#	88947
#	118734
#	173383
#
# Disc length: 2711 seconds
#
# Revision: 1
# Processed by: cddbd v1.5.2PL0 Copyright (c) Steve Scherf et al.
# Submitted via: audiograbber 1.83.01
#
DISCID=310a9505
DTITLE=Grateful Dead - 82-04-06 The Spectrum, Philadelphia PA
DYEAR=1900
DGENRE=
TTITLE0=Shakedown Street
TTITLE1=Lost Sailor
TTITLE2=Saint Of Circumstance
TTITLE3=Terrapin Station
TTITLE4=Drums
EXTD=
EXTT0=
EXTT1=
EXTT2=
EXTT3=
EXTT4=
PLAYORDER=
